# xmcd
#
# Track frame offsets: 
#        150
#        10547
#        34162
#        58500
#        78450
#        93925
#        110006
#        123319
#
# Disc length: 2043 seconds
#
# Revision: 0
# Processed by: cddbd v1.5.2PL0 Copyright (c) Steve Scherf et al.
# Submitted via: ExactAudioCopy v1.0b4
#
DISCID=5907f908
DTITLE=Kyle Yardley - Juke Joint Boogie
DYEAR=2017
DGENRE=Blues
TTITLE0=Juke Joint Boogie
TTITLE1=Long Brown Hair
TTITLE2=Treat You Like A Queen
TTITLE3=I Need Your Love
TTITLE4=Fool For Loving You
TTITLE5=High Maintenance Woman
TTITLE6=Let's Get Drunk
TTITLE7=You Were Crying When You Left Me
EXTD=
EXTT0=
EXTT1=
EXTT2=
EXTT3=
EXTT4=
EXTT5=
EXTT6=
EXTT7=
PLAYORDER=
